<svg xmlns="http://www.w3.org/2000/svg" viewBox="0 0 64 64" fill="none">
  <defs>
    <linearGradient id="cloudGrad" x1="0%" y1="0%" x2="100%" y2="100%">
      <stop offset="0%" style="stop-color:#3B82F6"/>
      <stop offset="100%" style="stop-color:#06B6D4"/>
    </linearGradient>
  </defs>
  <!-- Cloud shape -->
  <path d="M48 42H18c-5.5 0-10-4.5-10-10 0-4.8 3.4-8.8 8-9.8C16.6 15.4 22.6 10 30 10c8.3 0 15.2 6.2 16 14.2 5.5.8 9.8 5.5 9.8 11.2 0 6.2-5 11.6-11.8 11.6h-0z"
        stroke="url(#cloudGrad)" stroke-width="2.5" fill="none"/>
  <!-- Upload arrow -->
  <path d="M32 50 L32 30 M26 36 L32 30 L38 36" stroke="url(#cloudGrad)" stroke-width="2.5" stroke-linecap="round" stroke-linejoin="round"/>
  <!-- Sparkles -->
  <circle cx="22" cy="28" r="2" fill="#06B6D4" opacity="0.6"/>
  <circle cx="42" cy="26" r="2" fill="#3B82F6" opacity="0.6"/>
</svg>