<svg xmlns="http://www.w3.org/2000/svg" viewBox="0 0 64 64" fill="none">
  <defs>
    <linearGradient id="devopsGrad" x1="0%" y1="0%" x2="100%" y2="100%">
      <stop offset="0%" style="stop-color:#3B82F6"/>
      <stop offset="100%" style="stop-color:#06B6D4"/>
    </linearGradient>
  </defs>
  <!-- Infinity loop / DevOps cycle -->
  <path d="M20 32c0-6.6 5.4-12 12-12s12 5.4 12 12-5.4 12-12 12"
        stroke="url(#devopsGrad)" stroke-width="2.5" fill="none" stroke-linecap="round"/>
  <path d="M44 32c0 6.6-5.4 12-12 12s-12-5.4-12-12 5.4-12 12-12"
        stroke="url(#devopsGrad)" stroke-width="2.5" fill="none" stroke-linecap="round" opacity="0.5"/>
  <!-- Gear in center -->
  <circle cx="32" cy="32" r="6" stroke="url(#devopsGrad)" stroke-width="2" fill="none"/>
  <circle cx="32" cy="32" r="2" fill="url(#devopsGrad)"/>
  <!-- Gear teeth -->
  <path d="M32 24v2 M32 38v2 M24 32h2 M38 32h2 M26.3 26.3l1.4 1.4 M36.3 36.3l1.4 1.4 M26.3 37.7l1.4-1.4 M36.3 27.7l1.4-1.4"
        stroke="url(#devopsGrad)" stroke-width="2" stroke-linecap="round"/>
  <!-- Arrows -->
  <path d="M18 26l-3 6h6z" fill="url(#devopsGrad)"/>
  <path d="M46 38l3-6h-6z" fill="url(#devopsGrad)"/>
</svg>